<svg width="166" height="53" viewBox="0 0 166 53" fill="none" xmlns="http://www.w3.org/2000/svg">
<path d="M2.10227 48V33.4545H6.58381C7.5071 33.4545 8.29782 33.6439 8.95597 34.0227C9.61884 34.4015 10.1278 34.92 10.483 35.5781C10.8381 36.2363 11.0156 36.9867 11.0156 37.8295C11.0156 38.6629 10.8381 39.4086 10.483 40.0668C10.1278 40.7249 9.61884 41.2457 8.95597 41.6293C8.29782 42.008 7.50947 42.1974 6.59091 42.1974H2.72727V41.3736H6.5696C7.31771 41.3736 7.95691 41.2221 8.48722 40.919C9.01752 40.6113 9.42472 40.1922 9.70881 39.6619C9.9929 39.1269 10.1349 38.5161 10.1349 37.8295C10.1349 37.1383 9.9929 36.5251 9.70881 35.9901C9.42472 35.455 9.01515 35.036 8.48011 34.733C7.94981 34.4299 7.31061 34.2784 6.5625 34.2784H2.99006V48H2.10227ZM15.6265 48V33.4545H16.5143V40.3082H25.2785V33.4545H26.1663V48H25.2785V41.1321H16.5143V48H15.6265ZM43.1422 40.7273C43.1422 42.2282 42.8818 43.5398 42.3609 44.6619C41.8401 45.7794 41.1157 46.6482 40.1876 47.2685C39.2643 47.8887 38.199 48.1989 36.9916 48.1989C35.7795 48.1989 34.7094 47.8887 33.7814 47.2685C32.8581 46.6435 32.136 45.7723 31.6152 44.6548C31.0944 43.5327 30.8339 42.2235 30.8339 40.7273C30.8339 39.2263 31.0944 37.9171 31.6152 36.7997C32.1408 35.6823 32.8652 34.8134 33.7885 34.1932C34.7118 33.5682 35.7795 33.2557 36.9916 33.2557C38.199 33.2557 39.2643 33.5658 40.1876 34.1861C41.1157 34.8063 41.8401 35.6776 42.3609 36.7997C42.8818 37.9171 43.1422 39.2263 43.1422 40.7273ZM42.2757 40.7273C42.2757 39.3778 42.0484 38.2083 41.5939 37.2188C41.1441 36.2292 40.5214 35.4645 39.726 34.9247C38.9305 34.3802 38.0191 34.108 36.9916 34.108C35.9642 34.108 35.0527 34.3778 34.2572 34.9176C33.4618 35.4527 32.8368 36.2173 32.3822 37.2116C31.9324 38.2012 31.7075 39.3731 31.7075 40.7273C31.7075 42.0672 31.9301 43.2344 32.3751 44.2287C32.825 45.2183 33.4476 45.9853 34.243 46.5298C35.0385 47.0743 35.9547 47.3466 36.9916 47.3466C38.0191 47.3466 38.9305 47.0767 39.726 46.5369C40.5214 45.9924 41.1441 45.2254 41.5939 44.2358C42.0484 43.2462 42.2757 42.0767 42.2757 40.7273ZM46.2403 34.2784V33.4545H56.432V34.2784H51.78V48H50.8923V34.2784H46.2403ZM71.8312 40.7273C71.8312 42.2282 71.5708 43.5398 71.05 44.6619C70.5292 45.7794 69.8047 46.6482 68.8767 47.2685C67.9534 47.8887 66.8881 48.1989 65.6807 48.1989C64.4686 48.1989 63.3985 47.8887 62.4705 47.2685C61.5472 46.6435 60.8251 45.7723 60.3043 44.6548C59.7834 43.5327 59.523 42.2235 59.523 40.7273C59.523 39.2263 59.7834 37.9171 60.3043 36.7997C60.8298 35.6823 61.5543 34.8134 62.4776 34.1932C63.4009 33.5682 64.4686 33.2557 65.6807 33.2557C66.8881 33.2557 67.9534 33.5658 68.8767 34.1861C69.8047 34.8063 70.5292 35.6776 71.05 36.7997C71.5708 37.9171 71.8312 39.2263 71.8312 40.7273ZM70.9648 40.7273C70.9648 39.3778 70.7375 38.2083 70.283 37.2188C69.8331 36.2292 69.2105 35.4645 68.4151 34.9247C67.6196 34.3802 66.7081 34.108 65.6807 34.108C64.6532 34.108 63.7418 34.3778 62.9463 34.9176C62.1509 35.4527 61.5259 36.2173 61.0713 37.2116C60.6215 38.2012 60.3966 39.3731 60.3966 40.7273C60.3966 42.0672 60.6191 43.2344 61.0642 44.2287C61.514 45.2183 62.1366 45.9853 62.9321 46.5298C63.7276 47.0743 64.6437 47.3466 65.6807 47.3466C66.7081 47.3466 67.6196 47.0767 68.4151 46.5369C69.2105 45.9924 69.8331 45.2254 70.283 44.2358C70.7375 43.2462 70.9648 42.0767 70.9648 40.7273ZM86.6925 38C86.5836 37.5076 86.3989 37.0317 86.1385 36.5724C85.8781 36.1084 85.5443 35.6918 85.1371 35.3224C84.7346 34.9484 84.2611 34.6525 83.7166 34.4347C83.1768 34.2169 82.5708 34.108 81.8984 34.108C80.871 34.108 79.9595 34.3778 79.1641 34.9176C78.3733 35.4527 77.7531 36.2173 77.3033 37.2116C76.8582 38.2012 76.6357 39.3731 76.6357 40.7273C76.6357 42.0672 76.8582 43.2344 77.3033 44.2287C77.7483 45.223 78.371 45.9924 79.1712 46.5369C79.9761 47.0767 80.9112 47.3466 81.9766 47.3466C82.9283 47.3466 83.7711 47.1264 84.505 46.6861C85.2436 46.2457 85.8189 45.616 86.2308 44.7969C86.6428 43.9777 86.844 42.9976 86.8345 41.8565L87.147 42.0057H82.2038V41.1818H87.701V42.0057C87.701 43.2888 87.4548 44.3944 86.9624 45.3224C86.4747 46.2457 85.7976 46.956 84.9311 47.4531C84.0694 47.9503 83.0845 48.1989 81.9766 48.1989C80.7266 48.1989 79.6352 47.8887 78.7024 47.2685C77.7696 46.6482 77.0452 45.7794 76.5291 44.6619C76.0178 43.5398 75.7621 42.2282 75.7621 40.7273C75.7621 39.6004 75.9089 38.5777 76.2024 37.6591C76.496 36.7405 76.915 35.9545 77.4595 35.3011C78.004 34.643 78.6527 34.1387 79.4055 33.7884C80.1584 33.4332 80.9893 33.2557 81.8984 33.2557C82.7223 33.2557 83.4633 33.393 84.1214 33.6676C84.7796 33.9375 85.3478 34.3021 85.826 34.7614C86.3089 35.2159 86.6996 35.7249 86.9979 36.2884C87.2962 36.8471 87.4974 37.4176 87.6016 38H86.6925ZM92.5054 48V33.4545H96.9869C97.9055 33.4545 98.6962 33.6345 99.3591 33.9943C100.022 34.3542 100.531 34.8537 100.886 35.4929C101.241 36.1274 101.419 36.866 101.419 37.7088C101.419 38.5421 101.241 39.276 100.886 39.9105C100.531 40.5402 100.022 41.0327 99.3591 41.3878C98.7009 41.7429 97.9126 41.9205 96.994 41.9205H92.9812V41.0895H96.9727C97.7208 41.0895 98.36 40.9498 98.8903 40.6705C99.4206 40.3911 99.8278 40.0005 100.112 39.4986C100.396 38.992 100.538 38.3954 100.538 37.7088C100.538 37.0175 100.396 36.4162 100.112 35.9048C99.8278 35.3887 99.4183 34.9886 98.8832 34.7045C98.3529 34.4205 97.7137 34.2784 96.9656 34.2784H93.3932V48H92.5054ZM98.4784 41.4091L102.058 48H101.035L97.477 41.4091H98.4784ZM105.605 48H104.668L109.916 33.4545H110.939L116.188 48H115.25L110.463 34.598H110.392L105.605 48ZM106.933 42.5241H113.922V43.348H106.933V42.5241ZM120.101 48V33.4545H124.582C125.506 33.4545 126.296 33.6439 126.954 34.0227C127.617 34.4015 128.126 34.92 128.481 35.5781C128.837 36.2363 129.014 36.9867 129.014 37.8295C129.014 38.6629 128.837 39.4086 128.481 40.0668C128.126 40.7249 127.617 41.2457 126.954 41.6293C126.296 42.008 125.508 42.1974 124.589 42.1974H120.726V41.3736H124.568C125.316 41.3736 125.955 41.2221 126.486 40.919C127.016 40.6113 127.423 40.1922 127.707 39.6619C127.991 39.1269 128.133 38.5161 128.133 37.8295C128.133 37.1383 127.991 36.5251 127.707 35.9901C127.423 35.455 127.014 35.036 126.479 34.733C125.948 34.4299 125.309 34.2784 124.561 34.2784H120.988V48H120.101ZM133.625 48V33.4545H134.513V40.3082H143.277V33.4545H144.165V48H143.277V41.1321H134.513V48H133.625ZM148.094 33.4545H149.145L153.726 40.4716H153.825L158.406 33.4545H159.457L154.223 41.402V48H153.328V41.402L148.094 33.4545Z" fill="black"/>
<path d="M3.39205 23H0.596591L6.87784 5.54545H9.92045L16.2017 23H13.4062L8.47159 8.71591H8.33523L3.39205 23ZM3.8608 16.1648H12.929V18.3807H3.8608V16.1648ZM23.8082 9.90909V11.9545H16.6577V9.90909H23.8082ZM18.5753 6.77273H21.1236V19.1562C21.1236 19.6506 21.1974 20.0227 21.3452 20.2727C21.4929 20.517 21.6832 20.6847 21.9162 20.7756C22.1548 20.8608 22.4134 20.9034 22.6918 20.9034C22.8963 20.9034 23.0753 20.8892 23.2287 20.8608C23.3821 20.8324 23.5014 20.8097 23.5866 20.7926L24.0469 22.8977C23.8991 22.9545 23.6889 23.0114 23.4162 23.0682C23.1435 23.1307 22.8026 23.1648 22.3935 23.1705C21.723 23.1818 21.098 23.0625 20.5185 22.8125C19.9389 22.5625 19.4702 22.1761 19.1122 21.6534C18.7543 21.1307 18.5753 20.4744 18.5753 19.6847V6.77273ZM29.4567 15.2273V23H26.9084V5.54545H29.4226V12.0398H29.5845C29.8913 11.3352 30.3601 10.7756 30.9908 10.3608C31.6214 9.94602 32.4453 9.73864 33.4624 9.73864C34.3601 9.73864 35.1442 9.9233 35.8146 10.2926C36.4908 10.6619 37.0135 11.2131 37.3828 11.946C37.7578 12.6733 37.9453 13.5824 37.9453 14.6733V23H35.397V14.9801C35.397 14.0199 35.1499 13.2756 34.6555 12.7472C34.1612 12.2131 33.4737 11.946 32.593 11.946C31.9908 11.946 31.451 12.0739 30.9737 12.3295C30.5021 12.5852 30.13 12.9602 29.8572 13.4545C29.5902 13.9432 29.4567 14.5341 29.4567 15.2273ZM45.1555 23.2898C44.326 23.2898 43.576 23.1364 42.9055 22.8295C42.2351 22.517 41.7038 22.0653 41.3118 21.4744C40.9254 20.8835 40.7322 20.1591 40.7322 19.3011C40.7322 18.5625 40.8743 17.9545 41.1584 17.4773C41.4425 17 41.826 16.6222 42.3089 16.3438C42.7919 16.0653 43.3317 15.8551 43.9283 15.7131C44.5249 15.571 45.1328 15.4631 45.7521 15.3892C46.5362 15.2983 47.1726 15.2244 47.6612 15.1676C48.1499 15.1051 48.505 15.0057 48.7266 14.8693C48.9482 14.733 49.0589 14.5114 49.0589 14.2045V14.1449C49.0589 13.4006 48.8487 12.8239 48.4283 12.4148C48.0135 12.0057 47.3942 11.8011 46.5703 11.8011C45.7124 11.8011 45.0362 11.9915 44.5419 12.3722C44.0533 12.7472 43.7152 13.1648 43.5277 13.625L41.1328 13.0795C41.4169 12.2841 41.8317 11.642 42.3771 11.1534C42.9283 10.6591 43.5618 10.3011 44.2777 10.0795C44.9936 9.85227 45.7464 9.73864 46.5362 9.73864C47.0589 9.73864 47.6129 9.80114 48.1982 9.92614C48.7891 10.0455 49.3402 10.267 49.8516 10.5909C50.3686 10.9148 50.7919 11.3778 51.1214 11.9801C51.451 12.5767 51.6158 13.3523 51.6158 14.3068V23H49.1271V21.2102H49.0249C48.8601 21.5398 48.6129 21.8636 48.2834 22.1818C47.9538 22.5 47.5305 22.7642 47.0135 22.9744C46.4964 23.1847 45.8771 23.2898 45.1555 23.2898ZM45.7095 21.2443C46.4141 21.2443 47.0163 21.1051 47.5163 20.8267C48.022 20.5483 48.4055 20.1847 48.6669 19.7358C48.9339 19.2812 49.0675 18.7955 49.0675 18.2784V16.5909C48.9766 16.6818 48.8004 16.767 48.5391 16.8466C48.2834 16.9205 47.9908 16.9858 47.6612 17.0426C47.3317 17.0937 47.0107 17.142 46.6982 17.1875C46.3857 17.2273 46.1243 17.2614 45.9141 17.2898C45.4197 17.3523 44.968 17.4574 44.5589 17.6051C44.1555 17.7528 43.8317 17.9659 43.5874 18.2443C43.3487 18.517 43.2294 18.8807 43.2294 19.3352C43.2294 19.9659 43.4624 20.4432 43.9283 20.767C44.3942 21.0852 44.9879 21.2443 45.7095 21.2443ZM55.0099 23V9.90909H57.473V11.9886H57.6094C57.848 11.2841 58.2685 10.7301 58.8707 10.3267C59.4787 9.91761 60.1662 9.71307 60.9332 9.71307C61.0923 9.71307 61.2798 9.71875 61.4957 9.73011C61.7173 9.74148 61.8906 9.75568 62.0156 9.77273V12.2102C61.9134 12.1818 61.7315 12.1506 61.4702 12.1165C61.2088 12.0767 60.9474 12.0568 60.6861 12.0568C60.0838 12.0568 59.5469 12.1847 59.0753 12.4403C58.6094 12.6903 58.2401 13.0398 57.9673 13.4886C57.6946 13.9318 57.5582 14.4375 57.5582 15.0057V23H55.0099ZM75.8182 9.90909L71.071 23H68.3438L63.5881 9.90909H66.3239L69.6392 19.983H69.7756L73.0824 9.90909H75.8182ZM81.6477 23.2898C80.8182 23.2898 80.0682 23.1364 79.3977 22.8295C78.7273 22.517 78.196 22.0653 77.804 21.4744C77.4176 20.8835 77.2244 20.1591 77.2244 19.3011C77.2244 18.5625 77.3665 17.9545 77.6506 17.4773C77.9347 17 78.3182 16.6222 78.8011 16.3438C79.2841 16.0653 79.8239 15.8551 80.4205 15.7131C81.017 15.571 81.625 15.4631 82.2443 15.3892C83.0284 15.2983 83.6648 15.2244 84.1534 15.1676C84.642 15.1051 84.9972 15.0057 85.2188 14.8693C85.4403 14.733 85.5511 14.5114 85.5511 14.2045V14.1449C85.5511 13.4006 85.3409 12.8239 84.9205 12.4148C84.5057 12.0057 83.8864 11.8011 83.0625 11.8011C82.2045 11.8011 81.5284 11.9915 81.0341 12.3722C80.5455 12.7472 80.2074 13.1648 80.0199 13.625L77.625 13.0795C77.9091 12.2841 78.3239 11.642 78.8693 11.1534C79.4205 10.6591 80.054 10.3011 80.7699 10.0795C81.4858 9.85227 82.2386 9.73864 83.0284 9.73864C83.5511 9.73864 84.1051 9.80114 84.6903 9.92614C85.2813 10.0455 85.8324 10.267 86.3438 10.5909C86.8608 10.9148 87.2841 11.3778 87.6136 11.9801C87.9432 12.5767 88.108 13.3523 88.108 14.3068V23H85.6193V21.2102H85.517C85.3523 21.5398 85.1051 21.8636 84.7756 22.1818C84.446 22.5 84.0227 22.7642 83.5057 22.9744C82.9886 23.1847 82.3693 23.2898 81.6477 23.2898ZM82.2017 21.2443C82.9063 21.2443 83.5085 21.1051 84.0085 20.8267C84.5142 20.5483 84.8977 20.1847 85.1591 19.7358C85.4261 19.2812 85.5597 18.7955 85.5597 18.2784V16.5909C85.4688 16.6818 85.2926 16.767 85.0312 16.8466C84.7756 16.9205 84.483 16.9858 84.1534 17.0426C83.8239 17.0937 83.5028 17.142 83.1903 17.1875C82.8778 17.2273 82.6165 17.2614 82.4062 17.2898C81.9119 17.3523 81.4602 17.4574 81.0511 17.6051C80.6477 17.7528 80.3239 17.9659 80.0795 18.2443C79.8409 18.517 79.7216 18.8807 79.7216 19.3352C79.7216 19.9659 79.9545 20.4432 80.4205 20.767C80.8864 21.0852 81.4801 21.2443 82.2017 21.2443ZM99.5327 23H96.7372L103.018 5.54545H106.061L112.342 23H109.547L104.612 8.71591H104.476L99.5327 23ZM100.001 16.1648H109.07V18.3807H100.001V16.1648ZM115.856 23L112.004 9.90909H114.637L117.202 19.5227H117.33L119.904 9.90909H122.538L125.094 19.4801H125.222L127.771 9.90909H130.404L126.56 23H123.961L121.302 13.5483H121.106L118.447 23H115.856ZM136.632 23.2898C135.803 23.2898 135.053 23.1364 134.382 22.8295C133.712 22.517 133.18 22.0653 132.788 21.4744C132.402 20.8835 132.209 20.1591 132.209 19.3011C132.209 18.5625 132.351 17.9545 132.635 17.4773C132.919 17 133.303 16.6222 133.786 16.3438C134.268 16.0653 134.808 15.8551 135.405 15.7131C136.001 15.571 136.609 15.4631 137.229 15.3892C138.013 15.2983 138.649 15.2244 139.138 15.1676C139.626 15.1051 139.982 15.0057 140.203 14.8693C140.425 14.733 140.536 14.5114 140.536 14.2045V14.1449C140.536 13.4006 140.325 12.8239 139.905 12.4148C139.49 12.0057 138.871 11.8011 138.047 11.8011C137.189 11.8011 136.513 11.9915 136.018 12.3722C135.53 12.7472 135.192 13.1648 135.004 13.625L132.609 13.0795C132.893 12.2841 133.308 11.642 133.854 11.1534C134.405 10.6591 135.038 10.3011 135.754 10.0795C136.47 9.85227 137.223 9.73864 138.013 9.73864C138.536 9.73864 139.089 9.80114 139.675 9.92614C140.266 10.0455 140.817 10.267 141.328 10.5909C141.845 10.9148 142.268 11.3778 142.598 11.9801C142.928 12.5767 143.092 13.3523 143.092 14.3068V23H140.604V21.2102H140.501C140.337 21.5398 140.089 21.8636 139.76 22.1818C139.43 22.5 139.007 22.7642 138.49 22.9744C137.973 23.1847 137.354 23.2898 136.632 23.2898ZM137.186 21.2443C137.891 21.2443 138.493 21.1051 138.993 20.8267C139.499 20.5483 139.882 20.1847 140.143 19.7358C140.411 19.2812 140.544 18.7955 140.544 18.2784V16.5909C140.453 16.6818 140.277 16.767 140.016 16.8466C139.76 16.9205 139.467 16.9858 139.138 17.0426C138.808 17.0937 138.487 17.142 138.175 17.1875C137.862 17.2273 137.601 17.2614 137.391 17.2898C136.896 17.3523 136.445 17.4574 136.036 17.6051C135.632 17.7528 135.308 17.9659 135.064 18.2443C134.825 18.517 134.706 18.8807 134.706 19.3352C134.706 19.9659 134.939 20.4432 135.405 20.767C135.871 21.0852 136.464 21.2443 137.186 21.2443ZM146.487 23V9.90909H148.95V11.9886H149.086C149.325 11.2841 149.745 10.7301 150.347 10.3267C150.955 9.91761 151.643 9.71307 152.41 9.71307C152.569 9.71307 152.756 9.71875 152.972 9.73011C153.194 9.74148 153.367 9.75568 153.492 9.77273V12.2102C153.39 12.1818 153.208 12.1506 152.947 12.1165C152.685 12.0767 152.424 12.0568 152.163 12.0568C151.56 12.0568 151.023 12.1847 150.552 12.4403C150.086 12.6903 149.717 13.0398 149.444 13.4886C149.171 13.9318 149.035 14.4375 149.035 15.0057V23H146.487ZM155.697 23V9.90909H158.246V23H155.697ZM156.984 7.8892C156.541 7.8892 156.161 7.74148 155.842 7.44602C155.53 7.14489 155.374 6.78693 155.374 6.37216C155.374 5.9517 155.53 5.59375 155.842 5.29829C156.161 4.99716 156.541 4.84659 156.984 4.84659C157.428 4.84659 157.805 4.99716 158.118 5.29829C158.436 5.59375 158.595 5.9517 158.595 6.37216C158.595 6.78693 158.436 7.14489 158.118 7.44602C157.805 7.74148 157.428 7.8892 156.984 7.8892Z" fill="#F96D6D"/>
</svg>
